<svg width="16" height="16" viewBox="0 0 16 16" fill="none" xmlns="http://www.w3.org/2000/svg">
<mask id="path-1-inside-1" fill="white">
<path d="M14 7V8H8V14H7V8H1V7H7V1H8V7H14Z"/>
</mask>
<path d="M14 7V8H8V14H7V8H1V7H7V1H8V7H14Z" fill="#19216C"/>
<path d="M14 7H19V2H14V7ZM14 8V13H19V8H14ZM8 8V3H3V8H8ZM8 14V19H13V14H8ZM7 14H2V19H7V14ZM7 8H12V3H7V8ZM1 8H-4V13H1V8ZM1 7V2H-4V7H1ZM7 7V12H12V7H7ZM7 1V-4H2V1H7ZM8 1H13V-4H8V1ZM8 7H3V12H8V7ZM9 7V8H19V7H9ZM14 3H8V13H14V3ZM3 8V14H13V8H3ZM8 9H7V19H8V9ZM12 14V8H2V14H12ZM7 3H1V13H7V3ZM6 8V7H-4V8H6ZM1 12H7V2H1V12ZM12 7V1H2V7H12ZM7 6H8V-4H7V6ZM3 1V7H13V1H3ZM8 12H14V2H8V12Z" fill="black" mask="url(#path-1-inside-1)"/>
</svg>
