<svg width="50" height="50" viewBox="0 0 50 50" fill="none" xmlns="http://www.w3.org/2000/svg">
<circle cx="25" cy="25" r="25" fill="#E0E8F9"/>
<g clip-path="url(#clip0)">
<path d="M29.2895 31C28.5237 31 27.8032 30.5781 27.4136 29.9031L24.5 24.9063L21.5909 29.9031C21.1967 30.5828 20.4762 31.0047 19.7104 31.0047C19.5065 31.0047 19.3026 30.9766 19.1078 30.9156L12.9 29.0781V37.4219C12.9 38.111 13.3531 38.711 13.9965 38.875L23.7931 41.411C24.2553 41.5281 24.7401 41.5281 25.1978 41.411L35.0034 38.875C35.6468 38.7063 36.1 38.1063 36.1 37.4219V29.0781L29.8922 30.911C29.6973 30.9719 29.4934 31 29.2895 31ZM38.9229 25.7406L36.5893 20.9219C36.4489 20.6313 36.1453 20.4625 35.8326 20.5047L24.5 22L28.6551 29.1297C28.8273 29.425 29.1717 29.5656 29.4934 29.4719L38.4607 26.8235C38.9093 26.6875 39.1268 26.1719 38.9229 25.7406V25.7406ZM12.4106 20.9219L10.077 25.7406C9.86856 26.1719 10.0906 26.6875 10.5347 26.8188L19.502 29.4672C19.8237 29.561 20.1681 29.4203 20.3403 29.125L24.5 22L13.1628 20.5047C12.8501 20.4672 12.5511 20.6313 12.4106 20.9219V20.9219Z" fill="#647ACB"/>
</g>
<path opacity="0.1" d="M16.7142 3.28293C16.7142 3.28293 16.4674 8.19013 19.5091 6.95815C19.5091 6.95815 20.0476 6.95419 20.2898 6.35726C20.2898 6.35726 20.0646 6.39756 20.1383 5.88953C20.164 5.70989 20.1712 5.5314 20.1597 5.35781C20.1432 5.12356 20.0576 4.91656 19.916 4.7683C19.916 4.7683 19.4077 3.51443 17.4109 3.41728C17.4109 3.41728 16.9735 3.11974 16.862 3.15877L17.1816 3.90852C17.1816 3.90852 17.7095 3.51509 18.1495 3.6387C18.1495 3.6387 17.2006 3.87196 17.224 4.02414C17.2281 4.05549 17.408 4.41037 17.408 4.41037C17.408 4.41037 18.3281 3.72848 18.9984 3.94624C18.9984 3.94624 17.8627 4.05463 17.4748 4.54563L17.7782 5.05678C17.7782 5.05678 18.7279 4.28692 19.5061 4.49966C19.5061 4.49966 18.3153 4.66071 17.8514 5.15991L18.2182 5.60286C18.2182 5.60286 19.1533 4.87147 19.798 5.05391C19.798 5.05391 18.4127 5.39741 18.3088 5.69702C18.3088 5.69702 18.671 6.07547 18.8191 6.11332C18.8191 6.11332 19.4989 5.60407 19.8588 5.75055C19.8588 5.75055 18.9353 6.08816 18.9322 6.20133C18.9322 6.20133 19.5452 6.52418 19.9644 6.48092C19.5767 6.54234 19.2006 6.48853 18.8734 6.32481C18.9189 6.57745 19.032 6.79517 19.1986 6.9513C19.1986 6.9513 18.7662 6.97506 18.7264 6.24464C18.7264 6.24464 18.2614 5.96884 18.2318 5.87457C18.2318 5.87457 18.1792 6.62126 18.3581 7.02768C18.3581 7.02768 17.9479 6.72406 18.1273 5.76458L17.7494 5.33069C17.7494 5.33069 17.6377 6.32051 17.7666 6.70419C17.7666 6.70419 17.4038 6.31099 17.6632 5.21082L17.3621 4.71443C17.3621 4.71443 17.205 5.57296 17.2635 6.05143C17.2635 6.05143 17.0119 5.58883 17.2798 4.56792L17.117 4.20129C17.117 4.20129 17.013 4.82857 16.9974 5.00877C16.9818 5.18897 16.9371 5.20863 16.9371 5.20863C16.8788 4.83841 16.9168 4.4371 17.0467 4.04942C17.0467 4.04942 16.7614 3.25778 16.7142 3.28293Z" fill="#19216C"/>
<path opacity="0.1" d="M19.5084 17.4504C19.5084 17.4504 20.3346 12.633 17.1769 13.3463C17.1769 13.3463 16.6433 13.2606 16.3327 13.8113C16.3327 13.8113 16.5604 13.8089 16.4273 14.2996C16.3805 14.4732 16.3522 14.6487 16.343 14.8225C16.3316 15.0572 16.3918 15.2764 16.5144 15.4467V15.4467C16.5144 15.4467 16.8691 16.7728 18.8345 17.2014C18.8345 17.2014 19.2323 17.5688 19.3474 17.5487L19.1198 16.7532C19.1198 16.7532 18.5505 17.0549 18.1295 16.8592C18.1295 16.8592 19.0966 16.7862 19.0915 16.6317C19.0912 16.6 18.9551 16.2186 18.9551 16.2186C18.9551 16.2186 17.9633 16.7406 17.3255 16.4134C17.3255 16.4134 18.4627 16.4952 18.905 16.0736L18.6653 15.517C18.6653 15.517 17.6337 16.1211 16.8884 15.7809C16.8884 15.7809 18.0865 15.8197 18.605 15.4027L18.2943 14.9031C18.2943 14.9031 17.2818 15.4716 16.6652 15.1836C16.6652 15.1836 18.0774 15.0741 18.2158 14.7948C18.2158 14.7948 17.902 14.3598 17.7599 14.2977C17.7599 14.2977 17.0265 14.6887 16.6876 14.4837C16.6876 14.4837 17.6419 14.3032 17.6584 14.1917C17.6584 14.1917 17.0897 13.77 16.6695 13.743C17.0607 13.7468 17.4267 13.8627 17.7313 14.0792C17.7161 13.8215 17.63 13.5871 17.4835 13.4048C17.4835 13.4048 17.9145 13.4533 17.8673 14.1831C17.8673 14.1831 18.295 14.5336 18.3131 14.6318C18.3131 14.6318 18.4537 13.9013 18.3248 13.4691C18.3248 13.4691 18.6949 13.838 18.4035 14.7581L18.7262 15.2506C18.7262 15.2506 18.9542 14.2892 18.8721 13.8879C18.8721 13.8879 19.1847 14.3376 18.7973 15.3836L19.0366 15.9253C19.0366 15.9253 19.2939 15.1014 19.2928 14.6179C19.2928 14.6179 19.487 15.1178 19.1007 16.084L19.2185 16.4741C19.2185 16.4741 19.3958 15.8704 19.4326 15.6945C19.4694 15.5187 19.516 15.5067 19.516 15.5067C19.5298 15.883 19.4447 16.274 19.27 16.6362C19.27 16.6362 19.4587 17.4675 19.5084 17.4504Z" fill="#19216C"/>
<path opacity="0.1" d="M28.7144 17.9346C28.7144 17.9346 32.0867 15.4894 30.2326 13.0856C30.2326 13.0856 30.0479 12.5425 29.566 12.6251C29.566 12.6251 29.6691 12.831 29.3037 13.0354C29.1746 13.108 29.0526 13.1988 28.9401 13.3058C28.7887 13.4511 28.6789 13.6515 28.6274 13.8763V13.8763C28.6274 13.8763 27.9589 15.0798 28.5689 17.1553C28.5689 17.1553 28.5174 17.7617 28.5813 17.8531L28.9757 17.1177C28.9757 17.1177 28.5335 16.7992 28.4676 16.2857C28.4676 16.2857 28.9447 17.1185 29.0388 17.0112C29.0585 16.9899 29.2355 16.6127 29.2355 16.6127C29.2355 16.6127 28.4674 16.0555 28.3867 15.2571C28.3867 15.2571 28.8433 16.3477 29.3035 16.4708L29.5435 15.8829C29.5435 15.8829 28.7065 15.3439 28.586 14.439C28.586 14.439 29.0965 15.5565 29.5879 15.7521L29.7608 15.1373C29.7608 15.1373 28.9544 14.5921 28.8587 13.839C28.8587 13.839 29.5573 15.0532 29.7932 14.9938C29.7932 14.9938 29.9244 14.4192 29.8997 14.2484C29.8997 14.2484 29.3286 13.8397 29.3051 13.3948C29.3051 13.3948 29.8435 14.1446 29.9204 14.0855C29.9204 14.0855 29.9296 13.2874 29.7588 12.8867C29.9311 13.2456 30.0222 13.656 30.0231 14.0773C30.177 13.8924 30.2847 13.6584 30.333 13.4038C30.333 13.4038 30.4951 13.8287 30.0191 14.2702C30.0191 14.2702 29.9914 14.8926 29.9382 14.9743C29.9382 14.9743 30.4565 14.6175 30.6684 14.2131C30.6684 14.2131 30.6036 14.7953 29.8999 15.1405L29.7368 15.7616C29.7368 15.7616 30.438 15.3311 30.6516 14.9898C30.6516 14.9898 30.5107 15.5732 29.6856 15.9146L29.4548 16.4923C29.4548 16.4923 30.0833 16.1798 30.3842 15.8578C30.3842 15.8578 30.1592 16.3666 29.3844 16.6561L29.1937 17.0223C29.1937 17.0223 29.6493 16.7831 29.7753 16.6999C29.9014 16.6167 29.9297 16.6512 29.9297 16.6512C29.7013 16.9135 29.4195 17.0955 29.1157 17.1769C29.1157 17.1769 28.6816 17.9006 28.7144 17.9346Z" fill="#19216C"/>
<path d="M35.0191 9.30521C35.0191 9.30521 35.8378 6.04476 33.0623 5.68983C33.0623 5.68983 32.5972 5.48014 32.3133 5.79319C32.3133 5.79319 32.5154 5.85506 32.3863 6.17033C32.3419 6.28326 32.3137 6.40268 32.3023 6.52612C32.2853 6.69313 32.3321 6.86937 32.4354 7.02766C32.4354 7.02766 32.7188 8.08575 34.4306 8.93978C34.4306 8.93978 34.77 9.31558 34.8721 9.33207L34.688 8.69329C34.688 8.69329 34.1842 8.75469 33.8191 8.49638C33.8191 8.49638 34.6669 8.71081 34.6667 8.5983C34.6714 8.5767 34.5549 8.26087 34.5549 8.26087C34.5549 8.26087 33.6764 8.36512 33.1254 7.95127C33.1254 7.95127 34.1216 8.32541 34.5139 8.14235L34.3155 7.67334C34.3155 7.67334 33.4009 7.82459 32.7557 7.37271C32.7557 7.37271 33.8036 7.73226 34.2653 7.57227L34.0042 7.12371C34.0042 7.12371 33.1056 7.2559 32.5718 6.87681C32.5718 6.87681 33.81 7.18867 33.9406 7.02498C33.9406 7.02498 33.6745 6.62375 33.5512 6.53713C33.5512 6.53713 32.9026 6.61501 32.6098 6.37608C32.6098 6.37608 33.4433 6.50779 33.4651 6.43245C33.4651 6.43245 32.9763 5.97038 32.6082 5.83464C32.9509 5.94515 33.2691 6.13029 33.5312 6.37159C33.5237 6.18092 33.4535 5.98743 33.3293 5.81488C33.3293 5.81488 33.7061 5.96989 33.65 6.48444C33.65 6.48444 34.0181 6.85704 34.0307 6.93278C34.0307 6.93278 34.1687 6.44329 34.0648 6.09446C34.0648 6.09446 34.381 6.46314 34.1045 7.04936L34.3768 7.49583C34.3768 7.49583 34.5991 6.86168 34.5326 6.54916C34.5326 6.54916 34.7963 6.96076 34.4366 7.61184L34.6353 8.06986C34.6353 8.06986 34.8772 7.54398 34.8857 7.19362C34.8857 7.19362 35.0447 7.61094 34.6872 8.20277L34.7824 8.5176C34.7824 8.5176 34.95 8.12935 34.9863 8.01236C35.0226 7.89538 35.0627 7.89935 35.0627 7.89935C35.0673 8.17568 34.9849 8.43538 34.8247 8.64946C34.8247 8.64946 34.9722 9.30283 35.0191 9.30521Z" fill="#647ACB"/>
<path d="M24.411 11.867C24.411 11.867 27.4635 10.2642 25.9716 7.85303C25.9716 7.85303 25.8381 7.34565 25.4144 7.33932C25.4144 7.33932 25.495 7.53964 25.1681 7.65563C25.0521 7.69864 24.9415 7.75874 24.8383 7.83467C24.6979 7.93629 24.5909 8.09402 24.5338 8.28351C24.5338 8.28351 23.8928 9.23236 24.3199 11.1562C24.3199 11.1562 24.2443 11.6796 24.2965 11.7706L24.6752 11.1877C24.6752 11.1877 24.3067 10.8365 24.2747 10.3739C24.2747 10.3739 24.6482 11.1833 24.7353 11.1057C24.7551 11.0945 24.9261 10.7864 24.9261 10.7864C24.9261 10.7864 24.2857 10.1721 24.2561 9.45732C24.2561 9.45732 24.6 10.4924 24.992 10.6729L25.2297 10.1954C25.2297 10.1954 24.5299 9.58533 24.4699 8.77088C24.4699 8.77088 24.858 9.83629 25.2763 10.0868L25.4582 9.57444C25.4582 9.57444 24.7834 8.96374 24.7377 8.28625C24.7377 8.28625 25.2841 9.46752 25.4944 9.45688C25.4944 9.45688 25.6364 8.97326 25.6251 8.81737C25.6251 8.81737 25.1516 8.36454 25.1507 7.97162C25.1507 7.97162 25.5792 8.71299 25.6516 8.67822C25.6516 8.67822 25.699 7.97883 25.57 7.59808C25.7024 7.94159 25.7613 8.31738 25.7409 8.68796C25.8841 8.55097 25.9896 8.36311 26.0445 8.14747C26.0445 8.14747 26.1641 8.54829 25.7289 8.85827C25.7289 8.85827 25.6741 9.40197 25.6233 9.46387C25.6233 9.46387 26.0912 9.23502 26.2958 8.914C26.2958 8.914 26.211 9.41444 25.5798 9.60162L25.4066 10.1213C25.4066 10.1213 26.0405 9.85879 26.2407 9.5919C26.2407 9.5919 26.0892 10.0809 25.3547 10.2478L25.1256 10.7178C25.1256 10.7178 25.6879 10.5451 25.9653 10.3108C25.9653 10.3108 25.7426 10.7219 25.0555 10.8497L24.8717 11.1405C24.8717 11.1405 25.2798 11.0044 25.3937 10.9523C25.5077 10.9002 25.5301 10.9343 25.5301 10.9343C25.3185 11.1279 25.0645 11.2421 24.7963 11.2643C24.7963 11.2643 24.383 11.8287 24.411 11.867Z" fill="#647ACB"/>
<defs>
<clipPath id="clip0">
<rect width="29" height="24" fill="white" transform="translate(10 19)"/>
</clipPath>
</defs>
</svg>
