<svg width="32" height="32" viewBox="0 0 32 32" fill="none" xmlns="http://www.w3.org/2000/svg">
<rect width="32" height="32" rx="16" fill="#F0F4F8"/>
<path d="M23.5 9.25H8.49999C7.58333 9.25 6.83333 9.925 6.83333 10.75V21.25C6.83333 22.075 7.58333 22.75 8.49999 22.75H23.5C24.4167 22.75 25.1667 22.075 25.1667 21.25V10.75C25.1667 9.925 24.4167 9.25 23.5 9.25ZM22.6667 21.25H9.33333C8.87499 21.25 8.49999 20.9125 8.49999 20.5V11.5C8.49999 11.0875 8.87499 10.75 9.33333 10.75H16.8333V13C16.8333 13.4125 17.2083 13.75 17.6667 13.75H23.5V20.5C23.5 20.9125 23.125 21.25 22.6667 21.25Z" fill="#19216C"/>
</svg>
